<?xml version="1.0" encoding="UTF-8"?>
<svg id="_Слой_1" data-name="Слой 1" xmlns="http://www.w3.org/2000/svg" viewBox="0 0 512.3 512">
  <defs>
    <style>
      .cls-1 {
        fill: #0f100b;
      }

      .cls-2 {
        fill: #796e5d;
      }

      .cls-3 {
        fill: #040502;
      }

      .cls-4 {
        fill: #96a58b;
      }

      .cls-5 {
        fill: #ede8d4;
      }

      .cls-6 {
        fill: #6a7563;
      }

      .cls-7 {
        fill: #010200;
      }

      .cls-8 {
        fill: #eee9d5;
      }

      .cls-9 {
        fill: #505050;
      }

      .cls-10 {
        fill: #1e211b;
      }

      .cls-11 {
        fill: #f0ead7;
      }

      .cls-12 {
        fill: #a3947d;
      }

      .cls-13 {
        fill: #6a7463;
      }

      .cls-14 {
        fill: #040503;
      }

      .cls-15 {
        fill: #555553;
      }

      .cls-16 {
        fill: #21211e;
      }

      .cls-17 {
        fill: #1d1f1b;
      }

      .cls-18 {
        fill: #7b8d72;
      }

      .cls-19 {
        fill: #353930;
      }

      .cls-20 {
        fill: #65765d;
      }

      .cls-21 {
        fill: #99a88e;
      }

      .cls-22 {
        fill: #e5e5e5;
      }

      .cls-23 {
        fill: #342819;
      }

      .cls-24 {
        fill: #2a2512;
      }

      .cls-25 {
        fill: #eee9d6;
      }

      .cls-26 {
        fill: #59553b;
      }

      .cls-27 {
        fill: #6d6e6c;
      }

      .cls-28 {
        fill: #656565;
      }

      .cls-29 {
        fill: #999476;
      }

      .cls-30 {
        fill: #827c57;
      }

      .cls-31 {
        fill: #21221f;
      }

      .cls-32 {
        fill: #050504;
      }

      .cls-33 {
        fill: #706757;
      }

      .cls-34 {
        fill: #4c3a24;
      }

      .cls-35 {
        fill: #969174;
      }

      .cls-36 {
        fill: #060703;
      }

      .cls-37 {
        fill: #95a58a;
      }

      .cls-38 {
        fill: #747474;
      }

      .cls-39 {
        fill: #282725;
      }

      .cls-40 {
        fill: #565239;
      }

      .cls-41 {
        fill: #1d1d1b;
      }

      .cls-42 {
        fill: #6b7d63;
      }

      .cls-43 {
        fill: #7f7f7f;
      }

      .cls-44 {
        fill: #f0ebd7;
      }

      .cls-45 {
        fill: #7a7979;
      }

      .cls-46 {
        fill: #171612;
      }

      .cls-47 {
        fill: #fafafa;
      }

      .cls-48 {
        fill: #efead8;
      }

      .cls-49 {
        fill: #727c6a;
      }

      .cls-50 {
        fill: #787677;
      }

      .cls-51 {
        fill: #383836;
      }

      .cls-52 {
        fill: #98a88d;
      }

      .cls-53 {
        fill: #434341;
      }

      .cls-54 {
        fill: #3d351a;
      }
    </style>
  </defs>
  <path d="M.3,265c1.2-9.98,7.35-20.19,13.95-27.55,8-8.92,13.76-12.54,25.42-15.58,16.59-4.32,33.78-5.27,50.62-1.87-1.78-17.25-8.3-28.79,1.59-44.91,2.61-4.25,5.5-5.88,8.4-9.51-5.94-15.12-6.55-31.45-9.92-47.23,1.61-8.36-4.6-18.97,8.46-18.4s17.49,18.17,28.53,14.61c7.3-2.35,31.46-38.04,38.92-46.08,20.66-22.28,40.73-34.08,71.04-20.98,3.84,1.66,5,5.43,10.44,4.52,1.88-.31,6.14-4.89,8.63-6.43,19.18-11.87,55.91-9.62,71.94,6.89,5.88,6.06-8.62,5.47-2.47,13.48,1.18,1.53,18.45,8.55,22.14,10.85,9.63,6,23.34,26.06,26.06,36.94.35,1.39.25,2.85.25,4.25,7.56-3.19,23.03-20.19,30.38-19.96,3.3.1,6.05,1.95,6.92,5.15.13.47.67,6.9.64,7.26-.24,2.52-2.39,8.23-2.86,11.1-2.48,15.01-2.64,28.26-7.38,43.66-1.62,5.26-8.28,17.27-6.2,21.78.35.77,11.29,9.54,12.2,9.8,4.8,1.38,15.88-.18,21.77.23,38.54,2.67,78.14,13.08,82.51,57.99v25c-2.27,10.99-6.02,18.31-13.35,26.65-7.79,8.87-11.91,11.93-23.23,15.27-17.69,5.22-35.24,6.71-53.42,3.08-.83.86,3.56,20.26,3.87,23.61.85,9.3-3.65,22.71-11.54,28.21-3.51,2.45-11.37,3.45-11.39,7.62,3.32,12.25,5.7,24.79,8.51,37.07.37,1.64.56,5.37.93,6.82,3.83,15.19,9.55,30.19,12.62,45.66H79.3l.23-3.27,35.48-101.52,4.28-23.21c-4.24.64-9.23,1.82-13.45,2.04-24.03,1.22-65.61-2.91-85.02-18.07-12.85-10.03-17.26-24.61-20.52-39.98.68-7.93-.93-17.27,0-25Z"/>
  <path class="cls-21" d="M466.3,283c-.77,2.07-1.92,2.9-3.56,4.06-8.32,5.89-34.8,12.37-44.98,8.98l-1.46-2.04c-.07,0-.26-.8-.54-.79l-.88.78c-1.3,2.93-2.8,5.9-3.57,9.01-.85,13.43-1.14,26.88-.85,40.36-2.99,17.24-21.43,36.39-36.15,18.64-10.57-18.85-3.84-41.31,6-58.99-18.37-2.29-39.46-10.67-41.89-31.62-2.76-23.75,4.38-50.29,28.52-59.26,10.32-3.83,49.59-4.86,61.91-4.17,5.16.29,29.1,2.85,32.43,4.57,1.88.97,2.66,3.81,3.31,5.69,5.76,16.59,4.79,47.59,1.72,64.78Z"/>
  <path class="cls-34" d="M252.3,352l2.66-.67c20.73,12.98,41.89,23.71,67,20.62,13.29,4.4,28.05,1.92,41.47-1.84l3.87.9c6.15,6.11,19.13,13.24,28,11.99-.34,4.67.83,9.16,1.86,13.64,4.94,21.41,11.64,42.65,17.19,63.91.17,1.79-.25,4.09-2.05,4.96-.88.42-9.64,1.37-11.52,1.48-44.07,2.64-112.45-28.6-148.62-53.36-24.31-16.64-53.74-51.38-70.87-75.63-.83-2.28.06-3.21,2.4-2.85,19.28,9.05,39.35,14.07,61.06,14.45l7.54,2.41Z"/>
  <path class="cls-21" d="M43.3,282c.59-12.59,3.39-32.68,10.18-43.32,3.05-4.78,4.54-6.85,10.44-7.56,4.07-.49,25.8,1.24,28.74,3.03,3.31,2.02,2.54,12.89,3.66,16.85,1.15,1.46,5.03-8.99,5.29-10.2,1.74-8.25.85-25.52-.38-34.22-.97-6.87-4.86-12.55-2.86-20.01,3.4-12.69,20.51-23.04,31.91-14.03,3.7,2.93,9.4,10.69,10.75,15.25,6.05,20.41.47,36.2-8.71,54.2,12.69,2.38,25.83,4.61,34.42,15.1,9.67,11.8,8.32,23.7,6.58,37.92-5.01,8.98-19.76,12.16-29.61,14.27-33.08,7.1-65.38,2.42-97.08-9.06l-3.31-3.21c-2.48-3.61-2.6-11.44,0-15Z"/>
  <path class="cls-54" d="M285.3,460c-58.25-.43-118.3,3.99-176.55,1.05-4.5-.23-8.86-1.68-13.46-1.04-2.14-2.17,10.18-42.11,11.51-48l20-62c2.27,4.28,4.63,22.63,10.05,23.06,2.5.2,3.68-2.77,5.47-1.62,3.64,2.34,10.96,29.67,19.47,13.57,3.57,6.09,6.47,10.2,14.05,11.04,8.78.98,10.9,2.44,19.24,4.67,6.97,1.86,14.4,2.36,21.22,4.28l7.57,1.81c14.42,20.43,35.26,34.74,57.81,45.52,4.15,2.16,10.98,6.06,3.62,7.67Z"/>
  <path class="cls-52" d="M198.3,117c-1.25.89-12.8,2.32-13.45,1.69-3.73-3.61,13.02-20.85,16.28-23.06,13.13-8.91,32.06-5.54,44.5,2.61,15.81-14.61,38.43-18.38,53.72-.34,1.63,1.92,8.37,13.36,6.98,14.97s-14.36,3.16-17.03,2.13c-2.87.35-5,1.2-6.38,2.56-17.49,3.1-22.06,8.05-16.86,25.54-.12,2.74-1.78,3.4-4.98,2l-.78,1.9c6.09,8.98,4.26,14.74,6.32,25.18,4.4,22.31,7.83,9.73,21.74,17.26,11.71,6.35,13.59,20.65,2.97,29.07-15.77,12.52-65.49,14.04-81.35,1.3-7.84-6.29-8.7-18.58-1.67-25.83l-.56-2.21c5.43-4.01,12.09-6.97,18.93-6.83,2.89-.95,5.63-26.56,4.83-31l1.04-1.31c1.59.95,3.47-.6,1.76-1.65.23-5.24.47-10.9.71-16.96-.52-8.72-1.69-9.36-10.39-11.51-8.91-1.9-17.69-3.74-26.32-5.53Z"/>
  <path class="cls-21" d="M203.3,193c-9.24,12.67-3.4,26.53,9.07,34.43,19.75,12.53,78.22,10.37,89.75-13.12,5.12-10.44.42-20-7.34-27.34-1.02-.97-4.04-.9-1.97-2.98,3.01-.35,8.5,1.56,8.49-2.99-7.71-1.91-21.38,5.28-27.74-.25-2.31-2.01-6.54-28.5-5.24-29.74,6.41.56,11.8-3.46,17.74-4.76,7.14-1.55,24.59-2.28,31.68-1.19,8.98,1.39,13.09,17.28,17.39,24.61,5.85,9.96,17.81,22.15,19.09,33.92.84,7.69-2.55,6.17-7.42,9.41-1.93,1.29-4.39,6.36-5.54,2.54-1.96-6.55-1.17-16.65-7.46-20.6-5.26.01-14.43,20.6-16.69,25.38-1.42,2.99-1.69,7.8-4.51,9.49-3.81,2.28-19.15,5.68-24.28,6.72-24.02,4.89-52.1,5.98-76.52,3.45-7.82-.81-15.56-2.87-23.28-4.22-5.97-8.46-12.98-52.33-24.29-25.33-3.29,7.86-4.2,8.03-7.94,14.56-3.35,5.27-5.47,1.9-5-3,1.51-7.04.17-20.36,3-25-2.22-1.29-1.55-2.29,2-3l-.41-1.27,11.41-19.73-1.13-2.54c1.35-5.25,7.67-23.16,12.16-25.14,3.11-1.38,22.98-.7,26.92.11,4.45.91,25.01,6.48,26.65,9.06.27.42-.5,8.4-.7,9.93-1.81,13.85-5.16,25.1-21.84,21.04,1.14,3.92-1.2,5.85-4.57,5.54l-1.49,2Z"/>
  <path class="cls-50" d="M253.3,58c14.77-11.71,30.2-17.39,49.45-11.95,3.14.89,17.58,6.31,17.6,9.45.04,5.51-12.88-.51-16.04,2,9.31,3.67,14.68,12.21,22.67,17.33,28.25,18.11,30.14,12.78,39.32,48.18.19,3.45-7.68,11.7-10.63,9.74l-4.37-9.74c-2.16-5.75-5.12-11.58-8-17-1.65-2.01-2.75-1.47-2,1,5.6,12.63,9.23,26.71,13,40,2.85.36,3.37,5.02,2.33,6.95l1.67,5.05c.87,4.7,2.82,10.07,5.12,14.38,6.31,11.81,16.18,17.76,26.87,25.13-10.06.54-19.64,2.97-28.99,6.5-.9-12.73-11.07-21.78-17.42-32.09-3.19-5.17-14.95-25.37-16.18-29.9-.63-2.29.77-5.31.53-8.38-.34-4.28-2.83-10.84-4.93-14.63-2.95-1.63-4.95-3.63-6-6-.75,1.9-4.25,1-5.66-.35-7.61-12.5-16.72-23.24-27.35-32.24v-1.41c-.86-.28-.85-.62.01-1l.81-2.06c13.92-5.31,4.77-25.38-8.74-23.1-7.46,1.55-14.79,3.6-21.98,6.15l-1.1-1.99Z"/>
  <path class="cls-26" d="M363.3,316l-2.4,3.56c-28.88,16.85-62.55,30.35-96.6,32.44l-3.26.33c-8.13-4.24-35.43-23.29-37.97-31-.89-2.69-.97-4.1,2.23-3.32,2.84.99,14.37,2,17.5,2h27c14.88,0,40.71-13.5,52.82-22.18,2.16-1.55,11.24-9.87,12.2-9.87,2.5,0,3.87,5.47,5.49,7.55,6.68,8.57,15.41,10.4,25.56,12.47,1.3,1.69-2.12,6.35-2.56,8.03Z"/>
  <path class="cls-49" d="M43.3,297c28.4,9.53,52.59,16.27,83.37,12.87,15.19-1.67,34.62-5.28,46.63-14.87-1.16,9.5-4.66,17.71-9.44,26.06-4.46,7.79-14.59,11.87-23.18,12.82-26.9,2.96-57.77,7.48-84.23-.53-7.08-2.14-8.59-4.63-10.49-11.51s-2.43-17.66-2.67-24.83Z"/>
  <path class="cls-43" d="M200.3,51c1.89-.61,9.03-2.62,10.29-1.48,1.88,1.71-.97,5.34-3.43,5.73l-12.33,3.82c-20.73,5.28-13.74,34.27,7.07,21.37,15.22-2.72,2.45,7.05-3.36,10.72l-5.24,5.85.14,2.85-9.27,12.59-2.87.56c-1.66,3.74-4.25,7.02-7,10,.54.46.94.89.86,1.19-.18.71-3.64,10.16-3.92,10.66-.38.69-1.18.97-1.94,1.14-2.32,10.63-4.96,21.21-7.94,31.73-1.92,5.24-5.77,15.48-11.06,16.27-1.02-6.34-8.84-12.48-8.95-14.45-.08-1.44,4.79-14.61,5.49-18.51,1.42-7.92,1.12-14.32,3.46-22.04.43-7.29,3.45-16.34,9-21,.9-2.32-.39-2.85-2-1-.3,2.67-1.42,5.51-3.35,8.5-1.28,4.43-3.17,8.26-5.65,11.5-.2.5-.69,1.35-1,2-.57,3.55-3.22,7.77-5,3-1.3-3.69-10.86-6.56-12.93-10.64-.4-2.47,12.54-14.07,14.9-16.89,16.94-20.17,26.91-46.72,56.03-53.47Z"/>
  <path class="cls-30" d="M363.3,316c-4.27,16.16-4.91,30.89,0,47l.58,3.91c-20.83,9.03-59.36,6.63-80.66-2.08-6.3-2.58-16.23-6.91-18.92-12.82,1.04-1.81,2.74-1.72,4.51-1.99,23.83-3.59,44.9-9.1,66.85-19.15l27.64-14.86Z"/>
  <path class="cls-37" d="M328.3,266c-.18,2.47-2.99,6.4-4.89,8.08-38.07,33.58-95.41,40.03-138.3,12.61-.31-5.6-.58-11.16-.81-16.68-.21-1.53-2.26-6.83.48-5.99,43.93,29.51,105.37,22.16,143.02-14.01,1.06,5.23.29,10.7.5,16Z"/>
  <path class="cls-30" d="M198.3,367c4.45,7.11,9.31,14,14.49,20.64,7.16,9.86,6.66,13.65-1.49,11.36-10.72.23-23.14-5.91-34-8l-.55-1.52c-6.2.57-11.17-6.34-10.22-8.91l-1.23.43c-.65-.71-2.68-.72-3-1-6.91,1.78-9.7-.31-12.29-6.97-1.39-4.37-2.93-8.63-4.64-12.79-2.47,2.64-5.06,4.25-7.78,4.82-2.72-6.71-4.2-14.01-5.29-21.06,1.83-1.94,20.77-4.98,25.54-6.96,2.71-1.12,9.04-6.38,10.76-5.94,2.26.58,25.85,31.22,29.7,35.9Z"/>
  <path class="cls-14" d="M284.3,80c4.13,1.33,9.01,6.31,12.03,9.47,5.79,6.07,12.86,19.33,17.51,23.52,1.6,1.44,2.82.69,3.47,1,2.67,3,0,3.67-8,2-2.29,1.78-5.36,2.48-9.19,2.11-4.65,1.41-8.59,1.37-11.81-.11-9.59,1.46-6.88-1.67,1-3,5.19-1.65,10.6-2.37,16-3.01l-7.56-12.93c-14.18-18.05-36.67-12.24-51.91.94-17.03-8.7-33.35-13.47-48.56,1.46-2.3,2.26-10.1,12.44-10.95,15.05-.49,1.5-.03,1.58,1.31,1.32,4.08-.81,6.58-.89,10.68-.84,14.73,2.42,3.61,3.04-4.33,2.3l-5.67.7-1.27,2.18c-10.66.27-11.55,8.81-12.42,17.54,17.14-.99,33.81-1.68,50.17,5.63l1.51,2.65c3.39,1.1,5.48-.4,7.77-2.8.19,2.07.27,4.01.23,5.8,9.01-4.78,6.04-13.95,7.01-23,3.09,2.1,2.37,10.94,1.9,14.41-1.23,9-9.76,11.46-9.95,12.25-.61,2.55.29,7.4-.09,10.7-.41,3.57-2.45,17.95-3.95,20.05-1.83,2.58-4.54,1.14-7.18,1.82-4.08,1.04-10.83,3.76-13.74,6.76-1.82-3.18-2.32-3.41-5-1,.27-.37.17-1.61.94-2.52.72-.85,5.5-2.65,3.08-3.99-3.03-1.68-9.6.62-13.01-.98,1.12-2.09,2.86-.53,3.79-.82.22-.07-.13-1.54,1.63-1.77,6.21-.8,17.76,2.99,23.59-.4,2.65-1.54,8.09-26.08,6.92-27.44-9.53-2.49-17.47-7.02-27.56-7.94-4.22-.39-20.47-.9-23.68.06-1.38.41-1.86,1.36-2.47,2.53-3.29,6.29-6.3,16.3-9.22,23.28l-11.32,19.59c-.56.55-.42,1.02.32,1.41-.61.93-1.56,2.27-2,3-.51-1.55-3.53-.64-3.95-1.04-.39-.37.12-8.1-.05-9.96l2.2.18c2.4-.5,18.34-39.22,15.32-45.95l1.48-4.23c.46-5.82,2.59-8.41,5-13,2.74-3.02,5.32-6.25,7-10,3.68-5.01,7.85-11.55,12-16,1.02-2.89,14.1-13.34,15.33-13.13,1.01.17,1.93.33,2.67,1.13,2.5-.04,4.15.04,5.92,2.03,10.64-.92,19.57,2.1,28.59,7.41l4.49-2.45c-.95-3.34,7.56-10.02,10-7,3.05-2.25,6.73-2.94,10.39-2.96-.96-6.14,9.64-3.8,13.61-2.04Z"/>
  <path class="cls-50" d="M253.3,58c2.81-.02,2.2,3.92,1.18,5.83-2.35,4.38-9.64,8.12-14.1,4.88,2.86,5.12,4.19,10.6.14,15.47-.06,1.04,5.08,4.84,5.63,4.61,1.44-5.42,25.35-17.86,27.95-14.17.48.68.37,1.59.19,2.37-3.26,3.42-7.93,6.09-14,8-2.59.47-7.69,5.18-10,7l-4.46,2.44c-10.96-6.79-22.22-8.51-34.54-9.44-6.73,2.32-13.19,6.84-18,12,2-5.27,7.89-8.96,11.91-12.59,8.57-7.77-9.95,1.12-11.66,1.37-10.88,1.63-16.31-11.35-11.28-20.31,5.28-9.39,24.34-10.54,26.55-13.45,2.61-3.44-6.11-1.58-8.52-1.02,16.85-7.23,34.97-1.25,47.64,10.92,1.06.19,4.12-2.94,5.36-3.92Z"/>
  <path class="cls-23" d="M188.3,303c19.01,8.84,36.05,21.09,51.11,36.75l11.37,8.82,1.52,3.42c-17.91-.91-35.49-1.91-52.52-7.98-4.64-1.65-9.14-4.4-13.94-6.06-1.3-.45-3.68-1.84-4.53.04-1.8-2.55-9.05-10.86-8.8-13.34,4.19-7.53,9.46-14.89,10.81-23.65,1.84.18,3.11,1.3,4.99,2Z"/>
  <path class="cls-42" d="M328.3,266c0,.18,1.01,1.61,1.07,3.38.1,2.81.42,9.38-.59,11.6-.84,1.85-12.87,12.52-15.14,13.86-22.04,12.98-65.42,21.31-90.16,15.48-13.35-3.14-27.28-10.46-40.04-15.46l.86-24.86c.03.23.92,1.06,1.04,2.41.85,9.2-3.46,11.68,6.45,16.6,42.98,21.32,93.42,15.62,129.42-15.6,3.2-2.77,3.66-6.18,7.09-7.41Z"/>
  <path class="cls-12" d="M10.3,279c.08-5.49,1.02-13.82,2.46-19.04,4.66-17,24.53-25.09,40.54-26.95-9.33,14.09-12.12,31.35-13,47.99,2.18,3.81,2.24,11.25,0,15l-1.66,1.86c-3.81.95-29.89-11.03-28.34-18.86Z"/>
  <path class="cls-24" d="M216.3,405c5.13.59,12.16-1.08,16.95.55,2.41.82,14.6,10.96,18.52,13.48,17.62,11.31,38.11,22.09,57.16,30.84,1.21.56,16.71,6.13,15.36,7.13l-39,3.01c.55-.92,3.29-.72.96-2.46-5.66-4.21-15.35-8.04-21.87-12.13-11.76-7.37-23.27-15.05-32.6-25.4-5.59-6.2-7-12.62-15.49-15.01Z"/>
  <path class="cls-4" d="M377.3,181l-.18-4.5c5.25-12.01,9.1-24.64,10.64-37.67l2.54-5.83-1.67.12c-5.63,6.08-11.41,11.71-17.33,16.88-2.24,2.68-4.82,5.2-7,8-1.45,2.85-3.3,1.17-5.55-5.01-.62.07-1.13.08-1.24-.13-1.82-3.47-1-13.4,3.79-14.86l40.3-31.27c8.47-3.97,2.33,15.35,1.82,18.88-2.72,18.66-4.63,39.87-16.3,55.7-4.47,6.06-5.49,3.24-9.82-.31Z"/>
  <path class="cls-4" d="M117.3,162c-2.37.04-8.29,1.62-9.11.42-3.88-11.54-7.45-23.21-9.58-35.23-.71-4.05-5.56-22.87,2.63-19.69l42.83,34.13-6.27,19.37c-9.06-5.83-16.24-14.11-23.51-21.99l-1.47.68c2.61,6.61,4.58,13.39,6.07,20.45l-1.6,1.88Z"/>
  <path class="cls-45" d="M309.3,116c7.28-.35,10.94.98,11,4,1.78,2.55,6.18,15.38,3.06,17.56-.8.56-16.37,1.16-19.44,1.56-8.56,1.12-18.45,2.52-26.89,4.11-4.06.76-4.63,3.29-8.74,1.76-3.15-1.32-4.97-13.63-4.04-16.83,1.06-3.66,1.71-5.21,5.63-6.6,6.24-2.8,12.14-4.06,18.41-3.57,6.9-1.31,13.93-2.69,21-2Z"/>
  <path class="cls-12" d="M499.3,256c.23,1.99.6,5.79-.27,7.47-1.43,2.76-24.77,18.11-26,16.13l.27-3.61c3.07-20.55-.4-40.82-3.99-61,21.68,6.37,26.57,20.45,29.99,41Z"/>
  <path class="cls-11" d="M251.24,245.06c.29,4.6,3.72,29.69,1.12,31.51-2.87,2-31.91-.95-34.16-3.97-1.46-1.96-3.89-26.62-2.91-27.6,12.15-.35,23.87,1.35,35.95.06Z"/>
  <path class="cls-44" d="M291.3,267.5c-.79,2.47-30.75,10.29-33.86,8.36-2.53-7.57-1.9-15.51-2.15-23.35-.07-2.33-2.6-6.25.68-7.33,8.92-2.95,23.43-1.34,32.92-5.13.83-.22,2.4,1.01,2.4,1.45v26Z"/>
  <path class="cls-36" d="M225.3,318c-2.01.55-.08,3.1.56,3.94,9.07,11.83,25.8,22.2,38.44,30.06,7.91,4.92,14.15,9.26,23.23,12.27,17.17,5.69,57.43,9.32,73.81,2.23,2.26-.98,2.3-.75,1.96-3.51,1.4,4.6.63,4.65,4,8-12.68,4.11-24.98,6.06-38.45,4.95-1.82-.15-3.57-1.69-6.02-1.98-6.51-.76-14.15.61-20.91-.09-14.45-1.51-37.3-13.9-49.62-21.88-21.4-13.85-38.76-37.09-60.4-46.11-1.45-.6-2.93-1.36-3.6-2.89,12.46,4.58,24.68,10.71,37,15Z"/>
  <path class="cls-33" d="M499.3,256c2.96,17.79,5.04,33.18-11.09,45.41-7.89,5.99-18.28,8.9-27.91,10.58,5.77-11.11,11.13-23.5,13-35.99-.28,3.1.56,2.15,2.54,1.04,4.91-2.74,11.97-7.19,16.37-10.63,3.56-2.78,8.31-5.18,7.09-10.41Z"/>
  <path class="cls-13" d="M416.3,294c3.48-.05,6.6.94,9.39.9,4.71-.06,12.85-1.37,17.64-2.37,8.35-1.74,15.47-5.75,22.96-9.54-1.35,7.56-5.44,27.15-13.54,29.96-4.58,1.59-30.46.22-33.47-2.45-1.92-1.71-2.2-13.32-2.99-16.51Z"/>
  <path class="cls-2" d="M40.3,296c.89.19.86.52,0,1,.27,11.06.13,21.69,5,31.99-24.52-3.77-35.32-27.15-35-49.99,2.04,4.2,6.41,6.81,10.33,9.17,5.4,3.25,13.46,7.56,19.67,7.83Z"/>
  <path class="cls-25" d="M167.59,243.71c-3.52-4.36-.51-26.48,1.44-32.48.45-1.37.71-4.67,2.75-4.23,3.1,1.49,12.29,31.73,13.22,36.79,5.11,27.74-7.45,6.85-17.41-.08Z"/>
  <path class="cls-48" d="M332.28,203c1.66,1.24,4.41,20.26,3.79,23.27-.21,1.05-7.15,19.12-7.74,20.01-.47.71-9.91,7.56-10.55,7.52-2.61-.19-2.61-5.32-2.54-7.32.33-9.07,8.74-34.63,14.21-41.83.59-.78,1.62-2.56,2.83-1.65Z"/>
  <path class="cls-42" d="M377.3,181c-3.12-2.56-11.17-11.03-11.85-14.74-.81-4.41,4.23-10.06,6.85-13.26,3.8-8.02,10.67-15.32,18-20-1.1,17-5.9,32.57-13,48Z"/>
  <path class="cls-6" d="M374.3,362c12.03,9.3,23.08,4.91,29.82-7.68,10.3-19.23,2.82-33.73,7.18-51.32.85,11.04-1.15,23.68,0,34.51s7.43,16.2-.16,27.82c-5.05,7.74-13.29,10.81-22.36,9.69-7.15-.89-11.37-7.49-14.48-13.02Z"/>
  <path class="cls-8" d="M212.19,244.1l2.1,27.89c-10.34-2.66-17.93-3.73-21.49-15-6.35-20.09,5.3-15.77,19.39-12.89Z"/>
  <path class="cls-5" d="M294.3,244.5c-.05-1.16-2.41-2.76-.03-5.03.9-.86,10.15-3.38,11.56-3.34,7.77.21,6.61,18.66,3.5,22.41-.85,1.02-11.59,7.22-12.71,7.32-.84.08-2.33-.73-2.33-1.36,0-6.64.27-13.38,0-20Z"/>
  <path class="cls-29" d="M132.3,344c3.09-.59,1.71,1.52,2.12,3.33,1.31,5.72,3.65,10.83,3.89,16.67,2.32-.64,5.5-6.78,7.86-5.84s5.19,19.39,10.83,20.7c1.69.39,4.24-1.52,5.16-.71.44.38,0,1.73.14,1.86-9.47,10.38-16.49-9.31-17.01-17-3.89.2-5.02,6.82-9.04,2.54-2.94-3.12-6.95-18.37-3.95-21.54Z"/>
  <path class="cls-27" d="M169.3,136c-.31,3.87,1.26,8.52.83,11.24-1.06,6.65-12.59,36.26-16.83,41.25-.46.54-.99,1.01-1.5,1.5l-1.49-3.99c-.06-.65.1-1.38,0-2,3.65-4.94,7.66-11.94,9.77-17.73,3.03-8.28,3.51-18.84,6.31-26.49.28-.75,2.72-2.22,2.91-3.78Z"/>
  <path class="cls-19" d="M289.3,115c-1.69.54-3.82,2.07-5.99,2.01v.98s4.99.01,4.99.01c-4.41.83-19.75,4.25-21.9,7.6-3.14,4.89.67,14.2,1.9,19.4-.61-.23-1.8-1.29-1.99-1l-.02,3.99c-2.66.8-4.08-5.38-5.99-1-2.23-3.29-3.31-3.74-3.89-8.61-.18-1.55-.28-17.5,1.88-14.39,1.22,6.61-1.14,18.21,6,21,.54-5.69-3.35-17.37.54-21.97,3.21-3.78,19.12-7.85,24.47-8.03Z"/>
  <path class="cls-20" d="M114.3,139c-2.14.97,1.35,4.68,2.03,5.47,2.6,3.03,5.89,5.5,8.48,8.52,1.21,1.41,7.07,8.59,7.48,9.52,1.36,3.08-5.39-.31-6.57-.43-2.77-.28-5.65-.13-8.42-.08l-6.01-24.49c1.48-1.87,2.33.75,3.01,1.49Z"/>
  <path class="cls-40" d="M198.3,367c2.37,2.88,4.1,6.19,6.49,9.01,6.69,7.88,14.27,15.13,21.5,22.5.42,2.26-.99,1.38-2.48,1.49-3.61.26-9.26.65-12.51-1,1.35-.03,5.93.87,4.99-1.48l-17.99-30.52Z"/>
  <path class="cls-1" d="M390.3,133c-5.46,7.06-12.37,13.13-18,20l1.99-5-2.99,2c.28-.34.41-1.85,1.43-3.03,5.38-6.21,12.56-11.75,18.08-17.97,1.38.82-.43,2.85-.5,4Z"/>
  <path class="cls-18" d="M151.3,222c1.97,2.41,1.48,5.61,5,3-1.69,2.95-3.52,12.54-4.08,12.92-1.42.97-5.72-.47-5.49-2.98.3-3.26,3.82-9.42,4.57-12.94Z"/>
  <path class="cls-41" d="M159.3,108c-3.76,6.79-6.73,13.5-9,21v-3s-2,1-2,1c3.42-8.64,3.16-11.7,9-20,2.54-3.25,3.83-2.88,2,1Z"/>
  <path class="cls-35" d="M165.3,381c-.05-1.43.37-3.5,1.99-2,.19.18.75,3.59,1.6,4.91,5.64,8.78,13.94.78,15.41,2.09,2.42,2.16-6.58,4.32-7,4.99-6.09-1.17-11.74-2.29-12-10Z"/>
  <path class="cls-10" d="M361.3,138c-6.12,4.5-3,12.66-.06,18.56.87,1.75.84,3.21,3.06,1.44-.42.54-.19,3.51-2.49,2.99-1.93-.43-1.4-7.46-4.5-7.99.13,2.02.62,4.02.99,6-2.75-3.01-2.9-8.14-4-12,5.33.67,1.32-1.48,1.96-4.44.51-2.36,2.6-4.23,5.04-4.56Z"/>
  <path class="cls-15" d="M366.3,123c.04.16,1.06.54,1.03,1.47-.07,2.25-9.01,10.13-11.53,10.55-2.15.36-1.2-.46-1.59-1.43-1.32-3.25-1.81-7.65-2.91-10.59,2.45,1.26,4.74,8.59,6.6,8.96,2.21.44,6.9-7.22,8.4-8.96Z"/>
  <path class="cls-46" d="M43.3,282c-.22,4.8-.16,10.18,0,15-.71-.24-2.11.16-3,0,0-.33,0-.67,0-1-.07-4.9-.26-10.13,0-15l3,1Z"/>
  <path class="cls-51" d="M343.3,106c-2.04-1.28-2.17-1.67-2,1-1.91-4.31-6.15-8.98-6.99-14,4.64,2.9,6.56,8.43,8.99,13Z"/>
  <path class="cls-39" d="M323.3,120l-2.41-.91-.59.91c-2.56-3.67-5.98-2.56-9.41-3.08-.83-.13-1.42-.9-1.59-.92,2.99-.54,8.88,1.66,8-2,4.45,2.17,3.75,1.93,6,6Z"/>
  <path class="cls-41" d="M147.3,129c-.22,1.13-.71,5.54-1.12,5.88-.36.3-3.71.23-3.86.11-.33-.26.22-2.3-.02-2.98,2.58,2.45,3.83-.56,5-3Z"/>
  <path class="cls-32" d="M329.05,380.26c31.17-4.05,43.41,39.58,17.94,55.93-15.41,9.89-40.1.92-43.25-17.14-3.41-19.55,4.03-36.02,25.31-38.79Z"/>
  <path class="cls-17" d="M234.3,151c-.25.13-.78,2.39-2.01.49l2-5.49c-3.76,3.18-3.57,3.53-7.99,2l1.27-1.89c6.07,1.19,4.02-16.55,2.89-17.81-3.02-3.38-35-7.46-39.73-6.48l-2.43-1.82c5.01-2.29,11.61-.39,16.99-1.01l-6.99-1.99c7.2.09,31.71,3.15,36.49,8.01,3.24,3.3,1.41,21.05-.49,25.99Z"/>
  <path class="cls-7" d="M325.29,171.99c-10.83-1.89-22.85-.7-32.98,3.52-4.58,1.91-8.22,5.34-13.01,6.48.39-16.25,16.83-34.08,33.33-23.83,2.28,1.42,9.43,8.57,11.17,10.83.77,1,1.94,1.27,1.49,3Z"/>
  <path class="cls-3" d="M176.3,175.99c-1.15-1.01,5.95-7.6,6.98-8.51,9.31-8.14,21.79-14.02,31.01-1.98,1.86,2.42,9.06,15.77,3.52,16.23-.77.06-7.29-3.8-9.25-4.5-6.02-2.14-12.3-3.77-18.75-3.23-4.45.38-8.74,2.89-13.5,1.98Z"/>
  <path d="M156.3,194c-1.76,1.18-2.71,1.75-1.59-1.08,2.5-6.32,8.41-14.52,12.59-19.92-4.18,9.99-5.06,11.94-11,21Z"/>
  <path class="cls-43" d="M284.3,79c-2.74.15-7.75-.33-10-2-.46-.06-.85-1.02-3.15-.83-5.66.46-16.16,6.84-20.82,10.36-1.54,1.16-2.45,4.04-3.65,4.41-1.73.53-8.39-5-8.28-6.28.34-3.84,4.98-3.53,1.39-12.65-2.76-7-10.65-10.42-13.49-17.01,1.92.51,5.82-2.15,7.04-1.55.42.2,4.69,6.52,5.38,7.62,1.35,2.15.8,6.36,5.14,6.96,2.37.33,7.33-2.52,8.51-4.46,1.32-2.18.73-5.37.93-5.58.12-.12,2.28.17,3.23-.22,12.15-5.11,29.88-12.42,36.67,4.82,2.59,6.58-1.09,16.24-8.89,16.4Z"/>
  <path class="cls-31" d="M284.3,79v1c-2.66-.85-7.78-1.37-10.52-1-1.36.19-3.14.72-1.47,2,4.77,0,10.36-1.08,12.99,4-3.96.67-7.68-1.11-11.5-1.08-2.61.02-11.17.66-13.5,1.09,3.07-4.69,9.38-5.56,14-8,3.03.38,7.99,2.04,10,2Z"/>
  <path class="cls-45" d="M174.3,123c2.57-4.91,4.16-6.13,7-10-.79,4.16-3.41,7.82-7,10Z"/>
  <path class="cls-53" d="M159.3,108c.17-2.67.04-2.28-2-1,1.24-1.76,1.94-5.04,4.99-6,.56,3.07-1.84,4.93-2.99,7Z"/>
  <path class="cls-45" d="M188.3,120c7.19-.71,16.06.14,23.21,1.29,3.45.56,18.43,3.94,20.36,5.64,2.03,1.79,2,14.62,1.22,17.35-.73,2.56-4.14,4.28-6.79,3.71-10.77-3.74-17.55-6.4-29.46-7.04-3.77-.2-22.62,1.26-23.6.6-2.33-1.59,1.82-15.28,3.57-17.55,1.86-2.42,8.41-3.71,11.49-4.01Z"/>
  <path class="cls-16" d="M250.3,92c-1.53,1.21-2.9,2.66-4.49,3.8-10.57-7.02-25.17-7.95-37.51-5.81l7-3-4-1.99c6.77-2.33,15.83-.64,22.72,1.78,6.4,2.25,9.36,8.99,16.28,5.22Z"/>
  <circle class="cls-28" cx="331.84" cy="410.03" r="26.87"/>
  <path class="cls-38" d="M346.3,416c-.49,7.02-12,7.82-17.78,5.57-11.03-4.3-18.86-23.15-7.22-29.57,3.9-4.94,14.66-7.06,20.24-4.73,10.96,4.58,13.68,20.8,4.76,28.73Z"/>
  <path class="cls-9" d="M321.3,392c-11.81,14.98,7.94,39.18,25,24,2.82-.61,2.24,1.67,2.02,3.48-1.77,14.74-32.19,18.86-36.58.58-1.68-7.02-2.47-17.27,1.55-23.57.73-1.14,6.24-7.53,8.01-4.49Z"/>
  <path class="cls-47" d="M342.29,397c-2.21-1.03-12.77-2.52-12.97-4.49-.03-.32,3.36-4.5,3.65-4.54,4.03-.46,12.94,3.49,9.32,9.03Z"/>
  <rect class="cls-22" x="339.3" y="397.56" width="9.98" height="2.87" transform="translate(-180.26 449.84) rotate(-54.74)"/>
</svg>